<?xml version="1.0" ?><svg xmlns="http://www.w3.org/2000/svg" id="Analytics" viewBox="0 0 64 64"><polygon points="22 59 25 51 39 51 42 59 22 59" style="fill:#45a9f4; stroke-width:0px;"/><rect x="3" y="1" width="58" height="50" rx="4" ry="4" style="fill:#d9ecff; stroke-width:0px;"/><rect x="8" y="6" width="48" height="37" style="fill:#b9d8f9; stroke-width:0px;"/><path d="M7,51c-2.20605469,0-4-1.79394531-4-4v-4h58v4c0,2.20605469-1.79394531,4-4,4H7Z" style="fill:#64c4ff; stroke-width:0px;"/><path d="M18,63v-2c0-1.10253906.89746094-2,2-2h24c1.10253906,0,2,.89746094,2,2v2h-28Z" style="fill:#2995e5; stroke-width:0px;"/><rect x="18" y="19" width="7" height="14" style="fill:#ffb666; stroke-width:0px;"/><rect x="29" y="15" width="7" height="18" style="fill:#4fc6af; stroke-width:0px;"/><rect x="40" y="23" width="7" height="10" style="fill:#f45687; stroke-width:0px;"/><path d="M57,0H7C4.24316406,0,2,2.24316406,2,5v42c0,2.75683594,2.24316406,5,5,5h16.55664062l-2.25,6h-1.30664062c-1.65429688,0-3,1.34570312-3,3v1h-2c-.55273438,0-1,.44726562-1,1s.44726562,1,1,1h34c.55273438,0,1-.44726562,1-1s-.44726562-1-1-1h-2v-1c0-1.65429688-1.34570312-3-3-3h-1.30664062l-2.25-6h16.55664062c2.75683594,0,5-2.24316406,5-5V5c0-2.75683594-2.24316406-5-5-5ZM4,5c0-1.65429688,1.34570312-3,3-3h50c1.65429688,0,3,1.34570312,3,3v37h-3V6c0-.55273438-.44726562-1-1-1H8c-.55273438,0-1,.44726562-1,1v36h-3V5ZM55,42H9V7h46v35ZM45,61v1h-26v-1c0-.55175781.44824219-1,1-1h24c.55175781,0,1,.44824219,1,1ZM40.55664062,58h-17.11328125l2.25-6h5.30664062v2c0,.55273438.44726562,1,1,1s1-.44726562,1-1v-2h5.30664062l2.25,6ZM60,47c0,1.65429688-1.34570312,3-3,3H7c-1.65429688,0-3-1.34570312-3-3v-3h56v3Z" style="fill:#393e4c; stroke-width:0px;"/><path d="M14,38h36c.55273438,0,1-.44726562,1-1s-.44726562-1-1-1H15V12c0-.55273438-.44726562-1-1-1s-1,.44726562-1,1v25c0,.55273438.44726562,1,1,1Z" style="fill:#393e4c; stroke-width:0px;"/><path d="M18,34h7c.55273438,0,1-.44726562,1-1v-14c0-.55273438-.44726562-1-1-1h-7c-.55273438,0-1,.44726562-1,1v14c0,.55273438.44726562,1,1,1ZM19,20h5v12h-5v-12Z" style="fill:#393e4c; stroke-width:0px;"/><path d="M29,34h7c.55273438,0,1-.44726562,1-1V15c0-.55273438-.44726562-1-1-1h-7c-.55273438,0-1,.44726562-1,1v18c0,.55273438.44726562,1,1,1ZM30,16h5v16h-5v-16Z" style="fill:#393e4c; stroke-width:0px;"/><path d="M40,34h7c.55273438,0,1-.44726562,1-1v-10c0-.55273438-.44726562-1-1-1h-7c-.55273438,0-1,.44726562-1,1v10c0,.55273438.44726562,1,1,1ZM41,24h5v8h-5v-8Z" style="fill:#393e4c; stroke-width:0px;"/><path d="M41.55273438,18.89453125c.14355469.07128906.29589844.10546875.44628906.10546875.3671875,0,.71972656-.20214844.89550781-.55273438l.72363281-1.44726562h6.38183594c.55273438,0,1-.44726562,1-1s-.44726562-1-1-1h-7c-.37890625,0-.72460938.21386719-.89453125.55273438l-1,2c-.24707031.49414062-.046875,1.09472656.44726562,1.34179688Z" style="fill:#393e4c; stroke-width:0px;"/><path d="M45,13h5c.55273438,0,1-.44726562,1-1s-.44726562-1-1-1h-5c-.55273438,0-1,.44726562-1,1s.44726562,1,1,1Z" style="fill:#393e4c; stroke-width:0px;"/></svg>